<svg width="24" height="24" viewBox="0 0 24 24" fill="none" xmlns="http://www.w3.org/2000/svg">
<path d="M12 19.5C16.1422 19.5 19.5 16.1422 19.5 12C19.5 7.85775 16.1422 4.5 12 4.5C7.85775 4.5 4.5 7.85775 4.5 12C4.5 16.1422 7.85775 19.5 12 19.5ZM12 21C7.02975 21 3 16.9703 3 12C3 7.02975 7.02975 3 12 3C16.9703 3 21 7.02975 21 12C21 16.9703 16.9703 21 12 21ZM12.75 12.4418V8.24775C12.75 7.83975 12.414 7.5 12 7.5C11.583 7.5 11.25 7.8345 11.25 8.24775V12.7523C11.2494 12.8496 11.268 12.9461 11.3048 13.0362C11.3416 13.1263 11.3959 13.2082 11.4645 13.2772L13.596 15.4087C13.6655 15.4779 13.748 15.5326 13.8388 15.5697C13.9295 15.6069 14.0267 15.6258 14.1247 15.6253C14.2228 15.6248 14.3197 15.6049 14.4101 15.5669C14.5005 15.5288 14.5824 15.4733 14.6512 15.4035C14.791 15.2638 14.8699 15.0745 14.8709 14.877C14.8718 14.6794 14.7948 14.4894 14.6565 14.3483L12.75 12.4418Z" fill="#4B4B4B"/>
</svg>
