<svg width="24" height="24" viewBox="0 0 24 24" fill="none" xmlns="http://www.w3.org/2000/svg">
<path d="M18.4983 21.7113H5.50176C5.05086 21.7134 4.61652 21.5416 4.2891 21.2315C4.12509 21.0786 3.99425 20.8936 3.90471 20.6879C3.81516 20.4823 3.76882 20.2605 3.76855 20.0362V11.7583C3.76985 11.3499 3.92307 10.9566 4.1984 10.6549L4.20051 10.6526C4.36601 10.4727 4.56709 10.3293 4.79097 10.2313C5.01485 10.1333 5.25666 10.0829 5.50105 10.0833H18.4983C18.7433 10.0826 18.9856 10.1332 19.2099 10.2317C19.4341 10.3302 19.6353 10.4745 19.8005 10.6554C20.076 10.9568 20.2293 11.35 20.2308 11.7583V20.036C20.2307 20.2546 20.1867 20.471 20.1015 20.6723C20.0162 20.8736 19.8914 21.0557 19.7344 21.2079C19.7267 21.2163 19.7185 21.2243 19.711 21.2313C19.3836 21.5414 18.9492 21.7133 18.4983 21.7113ZM5.11574 11.4858C5.04663 11.5598 5.0076 11.657 5.00629 11.7583V20.036C5.00746 20.0922 5.02003 20.1476 5.04323 20.1988C5.06644 20.25 5.0998 20.296 5.14129 20.3339C5.23891 20.4253 5.368 20.4757 5.50176 20.4745H18.4983C18.6257 20.4757 18.7491 20.4303 18.8452 20.3468L18.8588 20.3334C18.9002 20.2956 18.9335 20.2498 18.9567 20.1988C18.9799 20.1477 18.9925 20.0925 18.9938 20.0365V11.7583C18.9922 11.6568 18.9528 11.5596 18.8834 11.4855C18.8342 11.4327 18.7746 11.3908 18.7083 11.3623C18.642 11.3339 18.5705 11.3196 18.4983 11.3203H5.50176C5.42948 11.3197 5.35787 11.3342 5.29144 11.3626C5.22501 11.3911 5.16519 11.433 5.11574 11.4858Z" fill="#333333"/>
<path d="M16.5776 11.3203C16.4136 11.3203 16.2563 11.2552 16.1403 11.1392C16.0243 11.0232 15.9591 10.8659 15.9591 10.7018V7.48502C15.9554 6.43616 15.5371 5.4313 14.7954 4.68964C14.0538 3.94797 13.0489 3.52967 12 3.52596C9.81708 3.52596 8.04098 5.30206 8.04098 7.48502V10.7018C8.03783 10.8638 7.97127 11.0181 7.85559 11.1315C7.73992 11.245 7.58437 11.3085 7.42235 11.3085C7.26033 11.3085 7.10478 11.245 6.9891 11.1315C6.87343 11.0181 6.80687 10.8638 6.80372 10.7018V7.48502C6.80272 6.80273 6.93709 6.12701 7.19903 5.49699C7.46098 4.86698 7.84529 4.29518 8.32973 3.81471C9.31411 2.83034 10.6172 2.2887 12 2.2887C13.3829 2.2887 14.6862 2.83081 15.6704 3.81471C16.6545 4.79862 17.1964 6.10245 17.1964 7.48502V10.7018C17.1964 10.7831 17.1804 10.8635 17.1493 10.9386C17.1182 11.0136 17.0726 11.0818 17.0151 11.1393C16.9577 11.1967 16.8895 11.2423 16.8144 11.2733C16.7393 11.3044 16.6589 11.3204 16.5776 11.3203Z" fill="#333333"/>
<path d="M10.5771 15.2174C10.5771 15.4043 10.614 15.5893 10.6855 15.762C10.757 15.9346 10.8618 16.0915 10.9939 16.2236C11.126 16.3557 11.2829 16.4605 11.4555 16.532C11.6282 16.6035 11.8132 16.6403 12 16.6403C12.1869 16.6403 12.3719 16.6035 12.5446 16.532C12.7172 16.4605 12.874 16.3557 13.0062 16.2236C13.1383 16.0915 13.2431 15.9346 13.3146 15.762C13.3861 15.5893 13.4229 15.4043 13.4229 15.2174C13.4229 15.0306 13.3861 14.8456 13.3146 14.6729C13.2431 14.5003 13.1383 14.3434 13.0062 14.2113C12.874 14.0792 12.7172 13.9744 12.5446 13.9029C12.3719 13.8314 12.1869 13.7946 12 13.7946C11.8132 13.7946 11.6282 13.8314 11.4555 13.9029C11.2829 13.9744 11.126 14.0792 10.9939 14.2113C10.8618 14.3434 10.757 14.5003 10.6855 14.6729C10.614 14.8456 10.5771 15.0306 10.5771 15.2174Z" fill="#333333"/>
<path d="M12 18.125C11.9188 18.125 11.8383 18.109 11.7633 18.078C11.6882 18.0469 11.62 18.0013 11.5626 17.9439C11.5051 17.8864 11.4596 17.8182 11.4285 17.7432C11.3974 17.6681 11.3814 17.5877 11.3815 17.5065V15.2799C11.3815 15.1159 11.4466 14.9585 11.5626 14.8425C11.6786 14.7265 11.8359 14.6614 12 14.6614C12.164 14.6614 12.3213 14.7265 12.4373 14.8425C12.5533 14.9585 12.6185 15.1159 12.6185 15.2799V17.5065C12.6185 17.5877 12.6026 17.6681 12.5715 17.7432C12.5404 17.8182 12.4949 17.8864 12.4374 17.9439C12.38 18.0013 12.3118 18.0469 12.2367 18.078C12.1617 18.109 12.0812 18.125 12 18.125Z" fill="#333333"/>
</svg>
