<svg width="28" height="28" viewBox="0 0 28 28" fill="none" xmlns="http://www.w3.org/2000/svg">
<path d="M22.1667 22.5932C22.1667 23.02 22.0779 23.417 21.9002 23.7842C21.7226 24.1513 21.4783 24.4757 21.1675 24.7574C20.8566 25.0392 20.4925 25.2612 20.075 25.4234C19.6576 25.5856 19.2091 25.6667 18.7295 25.6667H9.27054C8.79093 25.6667 8.34241 25.5856 7.92497 25.4234C7.50753 25.2612 7.14338 25.0392 6.83253 24.7574C6.52167 24.4757 6.27743 24.1513 6.09979 23.7842C5.92216 23.417 5.83334 23.02 5.83334 22.5932V5.43253C5.83334 5.00565 5.92216 4.60438 6.09979 4.22873C6.27743 3.85307 6.52167 3.52437 6.83253 3.24263C7.14338 2.96089 7.50753 2.73891 7.92497 2.5767C8.34241 2.41448 8.79093 2.33337 9.27054 2.33337H18.7295C19.2091 2.33337 19.6576 2.41448 20.075 2.5767C20.4925 2.73891 20.8566 2.96089 21.1675 3.24263C21.4783 3.52437 21.7226 3.85307 21.9002 4.22873C22.0779 4.60438 22.1667 5.00565 22.1667 5.43253V22.5932ZM20.0084 6.66195H7.96494V21.3381H20.0084V6.66195ZM13.9867 22.0553C13.6137 22.0553 13.2895 22.1834 13.0141 22.4395C12.7388 22.6956 12.6012 23.0115 12.6012 23.3872C12.6012 23.7457 12.7388 24.0574 13.0141 24.322C13.2895 24.5867 13.6137 24.719 13.9867 24.719C14.3775 24.719 14.7061 24.5867 14.9725 24.322C15.239 24.0574 15.3722 23.7457 15.3722 23.3872C15.3722 23.0115 15.239 22.6956 14.9725 22.4395C14.7061 22.1834 14.3775 22.0553 13.9867 22.0553ZM16.1183 4.48486C16.1183 4.34825 16.0739 4.24153 15.9851 4.16469C15.8962 4.08786 15.7985 4.04944 15.692 4.04944H12.3081C12.2192 4.04944 12.126 4.08786 12.0283 4.16469C11.9306 4.24153 11.8817 4.34825 11.8817 4.48486C11.8817 4.62146 11.9261 4.72818 12.015 4.80502C12.1038 4.88186 12.2015 4.92027 12.3081 4.92027H15.692C15.7985 4.92027 15.8962 4.88186 15.9851 4.80502C16.0739 4.72818 16.1183 4.62146 16.1183 4.48486Z" fill="#393939"/>
</svg>
