<svg width="24" height="24" viewBox="0 0 24 24" fill="none" xmlns="http://www.w3.org/2000/svg">
<path d="M15.1758 1.42163H8.79302C6.69297 1.42163 4.9845 3.13011 4.9845 5.23015V18.6811C4.9845 20.7811 6.69297 22.4896 8.79302 22.4896H15.1758C17.2758 22.4896 18.9843 20.7811 18.9843 18.6811V5.23015C18.9843 3.13011 17.2758 1.42163 15.1758 1.42163ZM17.7148 18.6811C17.7148 20.0811 16.5758 21.2201 15.1758 21.2201H8.79302C7.39303 21.2201 6.25401 20.0811 6.25401 18.6811V5.23015C6.25401 3.83016 7.39303 2.69112 8.79302 2.69112H10.1095C10.113 3.03863 10.3952 3.31948 10.7436 3.31948H13.2252C13.5736 3.31948 13.8558 3.03863 13.8593 2.69112H15.1758C16.5758 2.69112 17.7148 3.83014 17.7148 5.23015V18.6811H17.7148Z" fill="#333333"/>
<path d="M13.2253 19.2024H10.7436C10.3931 19.2024 10.1088 19.4866 10.1088 19.8372C10.1088 20.1877 10.393 20.4719 10.7436 20.4719H13.2253C13.5758 20.4719 13.86 20.1877 13.86 19.8372C13.86 19.4866 13.5758 19.2024 13.2253 19.2024Z" fill="#333333"/>
</svg>
