<svg width="18" height="19" viewBox="0 0 18 19" fill="none" xmlns="http://www.w3.org/2000/svg">
<path d="M10.7776 9.44628C14.4408 9.44628 17.41 12.3882 17.41 16.0176V16.4283C17.41 16.864 17.2353 17.2819 16.9244 17.59C16.6134 17.8981 16.1917 18.0711 15.7519 18.0711H1.6581C1.21834 18.0711 0.796598 17.8981 0.485645 17.59C0.174692 17.2819 0 16.864 0 16.4283V16.0176C0 12.3882 2.96923 9.44628 6.63238 9.44628H10.7776ZM10.7776 10.6784H6.63238C3.6988 10.6784 1.3128 13.001 1.24523 15.8915L1.24357 16.0176V16.4283C1.24358 16.5289 1.28086 16.626 1.34833 16.7012C1.4158 16.7763 1.50876 16.8244 1.6096 16.8361L1.6581 16.839H15.7519C15.8534 16.839 15.9514 16.8021 16.0273 16.7352C16.1032 16.6684 16.1516 16.5763 16.1635 16.4764L16.1664 16.4283V16.0176C16.1664 13.111 13.8223 10.747 10.9049 10.68L10.7776 10.6784ZM8.705 0C10.9944 0 12.8502 1.83874 12.8502 4.10708C12.8502 6.37542 10.9944 8.21415 8.705 8.21415C6.41558 8.21415 4.55976 6.37542 4.55976 4.10708C4.55976 1.83874 6.41558 0 8.705 0ZM8.705 1.23212C7.93543 1.23212 7.19738 1.53502 6.65321 2.07418C6.10904 2.61334 5.80333 3.34459 5.80333 4.10708C5.80333 4.86956 6.10904 5.60082 6.65321 6.13998C7.19738 6.67914 7.93543 6.98203 8.705 6.98203C9.47457 6.98203 10.2126 6.67914 10.7568 6.13998C11.301 5.60082 11.6067 4.86956 11.6067 4.10708C11.6067 3.34459 11.301 2.61334 10.7568 2.07418C10.2126 1.53502 9.47457 1.23212 8.705 1.23212Z" fill="#4B4B4B"/>
</svg>
