<svg width="24" height="24" viewBox="0 0 24 24" fill="none" xmlns="http://www.w3.org/2000/svg">
<path d="M12.0118 21.917C11.1522 21.917 10.1714 21.5916 9.09663 20.9499C8.25572 20.4478 7.37561 19.7561 6.61822 19.0021C5.34361 17.702 4.35212 16.1169 3.74413 14.4116L3.69843 14.2835V4.75956L4.56635 4.76661C5.54846 4.767 6.52349 4.60037 7.44973 4.27386L7.4681 4.26767C8.92637 3.79521 10.3054 3.10631 11.5589 2.22403L11.9952 1.91699L12.4419 2.20865C13.7334 3.0514 15.1173 3.74336 16.5665 4.27098C17.2901 4.50475 17.9577 4.66046 18.5545 4.7349C18.8048 4.76608 19.028 4.78189 19.218 4.78189H19.2181C19.2877 4.78189 19.3494 4.77964 19.4031 4.7758L19.4317 4.77334L20.3251 4.64487V14.283L20.2797 14.411C19.6727 16.1179 18.681 17.7034 17.4116 18.9958C16.6479 19.7555 15.7682 20.4466 14.9283 20.9483C13.8525 21.5912 12.8712 21.917 12.0118 21.917ZM11.97 3.84657C10.7248 4.65839 9.37789 5.30227 7.96417 5.76152C7.12702 6.05534 6.25532 6.23939 5.37085 6.30906L5.27249 6.31686V14.0088L5.27921 14.0268C5.82056 15.4811 6.64567 16.7808 7.73156 17.8895C9.20759 19.3574 10.9273 20.343 12.0118 20.343C13.0952 20.343 14.815 19.3574 16.2916 17.8902C17.3794 16.7815 18.2043 15.4821 18.7445 14.0272L18.7513 14.0092V6.33725L18.6541 6.3285C18.5558 6.31963 18.4578 6.30906 18.3599 6.29678C17.6606 6.20963 16.8903 6.03064 16.0702 5.76483L16.0443 5.75597C14.6632 5.25427 13.3364 4.61401 12.0843 3.84497L12.0268 3.80951L11.97 3.84657ZM7.99172 12.5879C7.91841 12.515 7.86029 12.4282 7.82073 12.3327C7.78117 12.2372 7.76096 12.1348 7.76125 12.0314C7.76125 11.8212 7.84306 11.6235 7.99172 11.4749C8.14038 11.3262 8.33795 11.2444 8.54823 11.2444C8.75851 11.2444 8.95608 11.3263 9.10474 11.4749L11.1482 13.5183L15.2456 9.42076C15.3944 9.2721 15.5919 9.19029 15.8022 9.19029C16.0125 9.19029 16.2101 9.2721 16.3587 9.42076C16.6656 9.72769 16.6656 10.227 16.3587 10.5338L11.1482 15.7443L7.99172 12.5879Z" fill="#333333"/>
</svg>
