<svg width="28" height="28" viewBox="0 0 28 28" fill="none" xmlns="http://www.w3.org/2000/svg">
<path d="M17.8859 10.4364C18.1463 10.4364 18.4063 10.4581 18.6667 10.4797C17.9508 7.13933 14.4587 4.66663 10.4675 4.66663C5.99915 4.66663 2.33334 7.76861 2.33334 11.7165C2.33334 13.9725 3.54805 15.8378 5.58696 17.2912L4.78438 19.7856L7.60431 18.3322C8.6236 18.5273 9.4478 18.7447 10.4675 18.7447C10.7059 18.7447 10.9663 18.7447 11.2267 18.723C11.053 18.1588 10.9663 17.573 10.9663 16.9872C10.9664 13.365 14.025 10.4364 17.8859 10.4364ZM13.5041 8.18107C14.1116 8.18107 14.5238 8.59281 14.5238 9.22208C14.5238 9.85125 14.1116 10.263 13.5041 10.263C12.897 10.263 12.2894 9.85119 12.2894 9.22208C12.2895 8.59281 12.897 8.18107 13.5041 8.18107ZM7.82102 10.263C7.21386 10.263 6.60631 9.85119 6.60631 9.22208C6.60631 8.59281 7.21386 8.18107 7.82102 8.18107C8.42857 8.18107 8.84069 8.59281 8.84069 9.22208C8.84075 9.85125 8.42857 10.263 7.82102 10.263Z" fill="#393939"/>
<path d="M25.6433 17.1721C25.6433 13.8309 22.3688 11.0834 18.6549 11.0834C14.7435 11.0834 11.6667 13.8309 11.6667 17.1721C11.6667 20.5352 14.7435 23.2616 18.6549 23.2616C19.4901 23.2616 20.3031 23.0411 21.1382 22.8435L23.38 24.0969L22.7644 22.0082C24.4126 20.7337 25.6433 19.0631 25.6433 17.1721ZM16.3916 16.1172C15.9741 16.1172 15.5786 15.7219 15.5786 15.2819C15.5786 14.8638 15.9741 14.4466 16.3916 14.4466C17.0067 14.4466 17.4243 14.8638 17.4243 15.2819C17.4243 15.7218 17.0067 16.1172 16.3916 16.1172ZM20.9186 16.1172C20.5011 16.1172 20.1056 15.7219 20.1056 15.2819C20.1056 14.8638 20.5011 14.4466 20.9186 14.4466C21.5338 14.4466 21.9513 14.8638 21.9513 15.2819C21.9513 15.7218 21.5338 16.1172 20.9186 16.1172Z" fill="#393939"/>
</svg>
